<mxfile host="app.diagrams.net" modified="2024-01-19T22:06:43.801Z" agent="Mozilla/5.0 (X11; CrOS x86_64 14541.0.0) AppleWebKit/537.36 (KHTML, like Gecko) Chrome/120.0.0.0 Safari/537.36" version="22.1.21" etag="tc6OwMF-iD2IT0aGHLK2" type="github">
  <diagram name="PÃ¡gina-1" id="dp739h36hnf_p2e6kuYJ">
    <mxGraphModel>
      <root>
        <mxCell id="0" />
        <mxCell id="1" parent="0" />
      </root>
    </mxGraphModel>
  </diagram>
</mxfile>
